<svg width="500" height="500" viewBox="0 0 500 500" fill="none" xmlns="http://www.w3.org/2000/svg">
<g clip-path="url(#clip0_14378_330)">
<path fill-rule="evenodd" clip-rule="evenodd" d="M249.996 3.38892H22.906C12.125 3.38892 3.38501 12.129 3.38501 22.9099V477.09C3.38501 487.87 12.1251 496.611 22.906 496.611H477.086C487.867 496.611 496.607 487.87 496.607 477.09V22.9099C496.607 12.1289 487.867 3.38892 477.086 3.38892H249.996Z" stroke="#116ACC" stroke-width="6.7782"/>
<path fill-rule="evenodd" clip-rule="evenodd" d="M360.861 199.71C386.085 199.71 406.558 220.182 406.558 245.408C406.558 270.634 386.085 291.106 360.861 291.106C335.636 291.106 315.163 270.632 315.163 245.408C315.163 220.184 335.636 199.71 360.861 199.71Z" fill="#7F7F7F"/>
<path fill-rule="evenodd" clip-rule="evenodd" d="M175.278 284.837C200.503 284.837 220.976 305.309 220.976 330.534C220.976 355.758 200.503 376.231 175.278 376.231C150.054 376.231 129.581 355.759 129.581 330.534C129.581 305.308 150.054 284.837 175.278 284.837Z" fill="#7F7F7F"/>
<path fill-rule="evenodd" clip-rule="evenodd" d="M360.861 350.257C386.085 350.257 406.558 370.73 406.558 395.954C406.558 421.179 386.085 441.652 360.861 441.652C335.636 441.652 315.163 421.179 315.163 395.954C315.163 370.73 335.636 350.257 360.861 350.257Z" fill="#7F7F7F"/>
<path d="M58.0008 58.2888H250.004H250.015H442.019C442.041 58.2888 442.052 58.2926 442.059 58.2955C442.069 58.2996 442.081 58.3073 442.093 58.3196C442.106 58.332 442.114 58.3446 442.118 58.3544C442.121 58.3615 442.124 58.3725 442.124 58.3946V248.698C442.124 248.721 442.121 248.732 442.118 248.739C442.113 248.749 442.106 248.762 442.093 248.774C442.081 248.787 442.068 248.795 442.058 248.799C442.054 248.8 442.049 248.802 442.041 248.804C442.036 248.805 442.028 248.805 442.019 248.805H58.0008C57.9789 248.805 57.9681 248.802 57.9612 248.799C57.9516 248.795 57.939 248.787 57.9265 248.775C57.914 248.762 57.9061 248.749 57.9019 248.739C57.8987 248.732 57.895 248.721 57.895 248.698V58.3946C57.895 58.3728 57.8987 58.362 57.9017 58.3549C57.9058 58.3451 57.9135 58.3325 57.9261 58.3199C57.9387 58.3073 57.9513 58.2996 57.9611 58.2955C57.9682 58.2924 57.979 58.2888 58.0008 58.2888Z" stroke="#116ACC" stroke-width="8"/>
<path fill-rule="evenodd" clip-rule="evenodd" d="M174.594 84.2292C204.715 84.2292 229.16 108.676 229.16 138.795C229.16 168.915 204.715 193.361 174.594 193.361C144.474 193.361 120.028 168.916 120.028 138.795C120.028 108.675 144.472 84.2292 174.594 84.2292Z" fill="#116ACC"/>
<path fill-rule="evenodd" clip-rule="evenodd" d="M174.731 93.2346C199.957 93.2346 220.429 113.708 220.429 138.932C220.429 164.157 199.957 184.63 174.731 184.63C149.505 184.63 129.035 164.157 129.035 138.932C129.035 113.708 149.507 93.2346 174.731 93.2346Z" fill="white"/>
<path fill-rule="evenodd" clip-rule="evenodd" d="M147.878 149.379H160.77C161.632 153.074 162.658 157.632 168.571 159.274V144.657C160.482 143.508 148.863 139.977 148.863 127.002C148.863 112.427 164.999 107.91 168.571 107.91V99.083H180.723V107.91C188.894 108.362 200.801 115.219 200.801 128.234H187.992C187.704 124.375 184.666 120.556 180.846 120.269V133.736C190.618 134.721 202.073 138.458 202.073 151.555C202.073 163.01 190.536 171.386 180.846 171.879V180.706H168.57V171.756C161.549 170.729 148.657 163.955 147.878 149.379ZM168.611 120.433V131.56C159.989 131.396 159.825 121.993 168.611 120.433ZM180.97 146.751C191.686 146.998 192.875 157.632 180.97 159.356V146.751Z" fill="#116ACC"/>
<path fill-rule="evenodd" clip-rule="evenodd" d="M354.017 186.047C384.138 186.047 408.584 210.493 408.584 240.613C408.584 270.734 384.138 295.18 354.017 295.18C323.897 295.18 299.451 270.734 299.451 240.613C299.451 210.493 323.897 186.047 354.017 186.047Z" fill="#116ACC"/>
<path fill-rule="evenodd" clip-rule="evenodd" d="M354.018 194.784C379.242 194.784 399.715 215.257 399.715 240.481C399.715 265.706 379.242 286.179 354.018 286.179C328.793 286.179 308.32 265.707 308.32 240.481C308.32 215.256 328.793 194.784 354.018 194.784Z" fill="white"/>
<path fill-rule="evenodd" clip-rule="evenodd" d="M168.572 271.174C198.692 271.174 223.138 295.621 223.138 325.742C223.138 355.862 198.692 380.308 168.572 380.308C138.453 380.308 114.005 355.861 114.005 325.742C114.005 295.622 138.452 271.174 168.572 271.174Z" fill="#116ACC"/>
<path fill-rule="evenodd" clip-rule="evenodd" d="M168.435 280.184C193.66 280.184 214.133 300.656 214.133 325.881C214.133 351.105 193.66 371.578 168.435 371.578C143.211 371.578 122.738 351.106 122.738 325.881C122.738 300.655 143.211 280.184 168.435 280.184Z" fill="white"/>
<path fill-rule="evenodd" clip-rule="evenodd" d="M354.017 336.593C384.138 336.593 408.584 361.039 408.584 391.159C408.584 421.28 384.138 445.725 354.017 445.725C323.897 445.725 299.451 421.28 299.451 391.159C299.451 361.039 323.897 336.593 354.017 336.593Z" fill="#116ACC"/>
<path fill-rule="evenodd" clip-rule="evenodd" d="M354.018 345.603C379.242 345.603 399.715 366.076 399.715 391.301C399.715 416.525 379.242 436.998 354.018 436.998C328.793 436.998 308.32 416.525 308.32 391.301C308.32 366.076 328.793 345.603 354.018 345.603Z" fill="white"/>
<path fill-rule="evenodd" clip-rule="evenodd" d="M378.336 263.686V274.319H332.516V263.686C337.73 260.195 340.439 251.367 338.755 246.647H329.19V235.807H336.909C334.815 230.881 334.815 229.238 334.815 224.927C334.815 220.616 338.346 206.574 356.863 206.697C373.944 206.779 378.911 220.821 378.911 230.88H365.896C365.034 224.804 362.61 219.795 356.985 219.795C348.362 219.795 348.322 225.215 348.322 227.062C348.322 228.91 348.649 233.426 350.416 235.89H361.665V246.565H352.51C353.659 256.295 348.034 260.401 347.707 263.687L378.336 263.686Z" fill="#116ACC"/>
<path fill-rule="evenodd" clip-rule="evenodd" d="M172.188 319.235H184.669V325.476C187.378 322.314 190.498 318.989 197.191 318.989V330.854C186.967 332.127 184.669 337.547 184.669 344.28V359.183H172.188V319.235Z" fill="#116ACC"/>
<path fill-rule="evenodd" clip-rule="evenodd" d="M168.812 319.235V330.977H159.901V359.183H147.337V331.058H139.824V319.316H147.337V308.805C147.337 304.741 151.279 292.382 166.142 292.382C181.333 292.382 184.617 304.331 184.617 314.308H172.218C172.218 307.903 171.356 304.536 166.264 304.536C160.804 304.536 159.9 308.315 159.9 314.226V319.236L168.812 319.235Z" fill="#116ACC"/>
<path fill-rule="evenodd" clip-rule="evenodd" d="M327.706 359.837H342.077L355.379 383.363L369.832 359.837H383.095L361.621 397.774H377.675V409.805H362.278V426.761H349.14V409.805H332.717V397.981H349.345L327.706 359.837Z" fill="#116ACC"/>
</g>
<defs>
<clipPath id="clip0_14378_330">
<rect width="500" height="500" fill="white"/>
</clipPath>
</defs>
</svg>
