<svg width="15" height="19" viewBox="0 0 624 800" fill="none" xmlns="http://www.w3.org/2000/svg">
<path d="M312 6.5C480.894 6.5 616.611 129.573 616.611 280C616.611 403.919 540.082 532.417 462.455 630.662C423.767 679.626 385.063 720.759 356.026 749.652C341.512 764.094 329.423 775.469 320.973 783.224C317.224 786.665 314.192 789.392 311.983 791.359C309.775 789.409 306.749 786.707 303.009 783.3C294.56 775.603 282.473 764.308 267.96 749.954C238.926 721.238 200.224 680.317 161.539 631.496C83.9248 533.547 7.38892 405.046 7.38892 280C7.38892 129.573 143.106 6.5 312 6.5Z" fill="#0038C8" stroke="#DFE4EF" stroke-width="13"/>
<path d="M312 466.667C397.911 466.667 467.556 397.022 467.556 311.111C467.556 225.2 397.911 155.556 312 155.556C226.089 155.556 156.444 225.2 156.444 311.111C156.444 397.022 226.089 466.667 312 466.667Z" fill="#E4E9F5"/>
</svg>
