<?xml version="1.0" encoding="utf-8"?><svg viewBox="0 0 106 34" xmlns="http://www.w3.org/2000/svg" xmlns:xlink="http://www.w3.org/1999/xlink"><style>:root>svg{display:none}:root>svg:target{display:block}</style><svg viewBox="0 0 24 24" id="arrow" xmlns="http://www.w3.org/2000/svg"><path d="m7.83 11 3.58-3.59L10 6l-6 6 6 6 1.41-1.41L7.83 13H20v-2H7.83Z"/></svg><svg viewBox="0 0 24 24" id="check" xmlns="http://www.w3.org/2000/svg"><g clip-path="url(#ba)"><path d="M9 16.17 4.83 12l-1.42 1.41L9 19 21 7l-1.41-1.41L9 16.17Z"/></g><defs><clipPath id="ba"><path d="M0 0h24v24H0z"/></clipPath></defs></svg><svg viewBox="0 0 106 34" id="logo" xmlns="http://www.w3.org/2000/svg"><path d="M28.048 24.984c-.608 1.76-1.52 3.28-2.736 4.56-1.184 1.28-2.624 2.256-4.32 2.928-1.664.672-3.536 1.008-5.616 1.008-2.88 0-5.408-.656-7.584-1.968-2.144-1.344-3.824-3.232-5.04-5.664C1.568 23.416.976 20.52.976 17.16c0-3.36.592-6.256 1.776-8.688C3.936 6.04 5.6 4.168 7.744 2.856 9.92 1.512 12.448.84 15.328.84c2.144 0 4.016.304 5.616.912 1.632.576 3.008 1.456 4.128 2.64 1.12 1.152 1.968 2.576 2.544 4.272l-2.352 1.104c-.736-2.208-1.904-3.872-3.504-4.992-1.6-1.152-3.696-1.728-6.288-1.728-2.368 0-4.464.576-6.288 1.728-1.792 1.12-3.2 2.736-4.224 4.848-.992 2.08-1.488 4.592-1.488 7.536 0 2.912.496 5.424 1.488 7.536.992 2.112 2.384 3.744 4.176 4.896 1.792 1.12 3.872 1.68 6.24 1.68 2.56 0 4.736-.608 6.528-1.824 1.792-1.248 3.04-3.04 3.744-5.376l2.4.912ZM43.939 8.52c2.24 0 4.208.496 5.904 1.488 1.728.992 3.072 2.432 4.032 4.32.992 1.856 1.488 4.08 1.488 6.672 0 2.592-.496 4.832-1.488 6.72-.96 1.856-2.304 3.28-4.032 4.272-1.696.992-3.664 1.488-5.904 1.488-2.24 0-4.224-.496-5.952-1.488-1.696-.992-3.04-2.416-4.032-4.272-.96-1.888-1.44-4.128-1.44-6.72 0-2.592.48-4.816 1.44-6.672.992-1.888 2.336-3.328 4.032-4.32 1.728-.992 3.712-1.488 5.952-1.488Zm0 2.064c-1.824 0-3.408.416-4.752 1.248-1.344.832-2.4 2.032-3.168 3.6-.736 1.536-1.104 3.392-1.104 5.568 0 2.144.368 4 1.104 5.568.768 1.568 1.824 2.768 3.168 3.6 1.344.832 2.928 1.248 4.752 1.248 1.824 0 3.408-.416 4.752-1.248 1.344-.832 2.384-2.032 3.12-3.6.768-1.568 1.152-3.424 1.152-5.568 0-2.176-.384-4.032-1.152-5.568-.736-1.568-1.776-2.768-3.12-3.6-1.344-.832-2.928-1.248-4.752-1.248Zm19.486-6.24c-.608 0-1.104-.176-1.488-.528-.352-.384-.528-.88-.528-1.488s.176-1.088.528-1.44c.384-.384.88-.576 1.488-.576s1.088.192 1.44.576c.384.352.576.832.576 1.44s-.192 1.104-.576 1.488c-.352.352-.832.528-1.44.528ZM64.625 9v24h-2.4V9h2.4Zm8.522 24V9h2.16l.192 6-.384-.336c.448-1.312 1.12-2.416 2.016-3.312a8.798 8.798 0 0 1 3.216-2.112c1.248-.48 2.592-.72 4.032-.72 1.792 0 3.376.336 4.752 1.008a7.416 7.416 0 0 1 3.216 2.976c.8 1.312 1.2 2.96 1.2 4.944V33h-2.4V18.216c0-2.624-.656-4.544-1.968-5.76-1.28-1.216-2.96-1.824-5.04-1.824a8.798 8.798 0 0 0-4.224 1.056c-1.28.672-2.336 1.664-3.168 2.976-.8 1.312-1.2 2.912-1.2 4.8V33h-2.4Zm29.696-3.936c.64 0 1.152.208 1.536.624.416.384.624.896.624 1.536s-.208 1.168-.624 1.584c-.384.384-.896.576-1.536.576s-1.168-.192-1.584-.576c-.384-.416-.576-.944-.576-1.584 0-.64.192-1.152.576-1.536.416-.416.944-.624 1.584-.624Z"/></svg><svg viewBox="0 0 24 24" id="mail" xmlns="http://www.w3.org/2000/svg"><path d="M20 20H4a2 2 0 0 1-2-2V5.913A2 2 0 0 1 4 4h16a2 2 0 0 1 2 2v12a2 2 0 0 1-2 2ZM4 7.868V18h16V7.868L12 13.2 4 7.868ZM4.8 6l7.2 4.8L19.2 6H4.8Z"/></svg><svg viewBox="0 0 24 24" id="plus" xmlns="http://www.w3.org/2000/svg"><path d="M12 4v8m0 0v8m0-8h8m-8 0H4"/></svg><svg viewBox="0 0 20 10" id="vector-down" xmlns="http://www.w3.org/2000/svg"><path d="m0 0 10 10L20 0H0Z"/></svg><svg viewBox="0 0 20 10" id="vector-up" xmlns="http://www.w3.org/2000/svg"><path d="M20 10 10 0 0 10h20Z"/></svg></svg>